<svg width="33" height="32" viewBox="0 0 33 32" fill="none" xmlns="http://www.w3.org/2000/svg">
<mask id="mask0_71165_2141" style="mask-type:alpha" maskUnits="userSpaceOnUse" x="0" y="0" width="33" height="32">
<rect x="0.351562" width="32" height="32" fill="#D9D9D9"/>
</mask>
<g mask="url(#mask0_71165_2141)">
<path d="M14.9266 17.3559L12.6599 15.0336C12.4453 14.804 12.1805 14.6893 11.8656 14.6893C11.5507 14.6893 11.2748 14.8004 11.0379 15.0226C10.8082 15.2521 10.6933 15.5261 10.6933 15.8446C10.6933 16.1633 10.8082 16.4374 11.0379 16.6669L14.1489 19.7559C14.3712 19.9781 14.6304 20.0893 14.9266 20.0893C15.2231 20.0893 15.4824 19.9781 15.7046 19.7559L21.6599 13.8226C21.8822 13.6004 21.9915 13.3337 21.9879 13.0226C21.9842 12.7115 21.8675 12.4448 21.6379 12.2226C21.4157 12.015 21.1508 11.9131 20.8433 11.9169C20.5359 11.9207 20.2786 12.0263 20.0713 12.2336L14.9266 17.3559ZM11.3489 29.1336L9.32661 25.6893L5.34894 24.8669C5.07494 24.8151 4.84906 24.6688 4.67128 24.4279C4.4935 24.1873 4.42683 23.9299 4.47128 23.6559L4.90461 19.7336L2.31561 16.7336C2.12294 16.5336 2.02661 16.2891 2.02661 16.0003C2.02661 15.7114 2.12294 15.4669 2.31561 15.2669L4.90461 12.2893L4.47128 8.36692C4.42683 8.09292 4.4935 7.83548 4.67128 7.59459C4.84906 7.35392 5.07494 7.2077 5.34894 7.15592L9.32661 6.33359L11.3489 2.86692C11.4972 2.62248 11.7046 2.45392 11.9713 2.36126C12.2379 2.26881 12.5046 2.28181 12.7713 2.40026L16.3489 4.02259L19.9266 2.40026C20.1933 2.28181 20.4599 2.26514 20.7266 2.35026C20.9933 2.43537 21.2007 2.60014 21.3489 2.84459L23.3933 6.33359L27.3489 7.15592C27.6229 7.2077 27.8488 7.35392 28.0266 7.59459C28.2044 7.83548 28.2711 8.09292 28.2266 8.36692L27.7933 12.2893L30.3823 15.2669C30.5749 15.4669 30.6713 15.7114 30.6713 16.0003C30.6713 16.2891 30.5749 16.5336 30.3823 16.7336L27.7933 19.7336L28.2266 23.6559C28.2711 23.9299 28.2044 24.1873 28.0266 24.4279C27.8488 24.6688 27.6229 24.8151 27.3489 24.8669L23.3933 25.6893L21.3489 29.1559C21.2007 29.4004 20.9933 29.5651 20.7266 29.6503C20.4599 29.7354 20.1933 29.7187 19.9266 29.6003L16.3489 27.9779L12.7713 29.6003C12.5046 29.7187 12.2379 29.7317 11.9713 29.6393C11.7046 29.5466 11.4972 29.378 11.3489 29.1336Z" fill="#3DCFB6"/>
</g>
</svg>
