<svg width="33" height="32" viewBox="0 0 33 32" fill="none" xmlns="http://www.w3.org/2000/svg">
<path d="M15.9629 21.64C17.9266 21.64 19.5958 21.04 20.9704 19.84C22.345 18.64 23.0323 17.1867 23.0323 15.48C23.0323 13.96 22.5203 12.6733 21.4964 11.62C20.4724 10.5667 19.2311 10.04 17.7724 10.04C16.4539 10.04 15.3388 10.44 14.4271 11.24C13.5153 12.04 13.0595 13.0267 13.0595 14.2C13.0595 14.7067 13.1507 15.2067 13.333 15.7C13.5153 16.1933 13.8309 16.6267 14.2798 17C14.7286 17.3733 15.1775 17.5267 15.6263 17.46C16.0752 17.3933 16.4398 17.2133 16.7204 16.92C17.0009 16.6267 17.1622 16.2733 17.2043 15.86C17.2464 15.4467 17.071 15.0667 16.6783 14.72C16.6222 14.6667 16.5661 14.6 16.51 14.52C16.4539 14.44 16.4258 14.3467 16.4258 14.24C16.4258 13.9467 16.5521 13.7133 16.8045 13.54C17.057 13.3667 17.3796 13.28 17.7724 13.28C18.3334 13.28 18.7963 13.5 19.161 13.94C19.5257 14.38 19.708 14.9067 19.708 15.52C19.708 16.3467 19.3503 17.0467 18.635 17.62C17.9196 18.1933 17.043 18.48 16.005 18.48C14.6865 18.48 13.5714 17.9733 12.6597 16.96C11.748 15.9467 11.2922 14.7067 11.2922 13.24C11.2922 12.7333 11.3553 12.24 11.4815 11.76C11.6077 11.28 11.7971 10.8267 12.0496 10.4C12.274 10 12.3862 9.58 12.3862 9.14C12.3862 8.7 12.2179 8.32 11.8813 8C11.5446 7.68 11.1379 7.52667 10.661 7.54C10.1841 7.55333 9.81938 7.74667 9.56691 8.12C9.00585 8.86667 8.58506 9.66667 8.30453 10.52C8.024 11.3733 7.88374 12.2667 7.88374 13.2C7.88374 15.5467 8.66922 17.54 10.2402 19.18C11.8111 20.82 13.7187 21.64 15.9629 21.64ZM7.08424 32C6.60734 32 6.20759 31.8467 5.88498 31.54C5.56237 31.2333 5.40107 30.8533 5.40107 30.4V25.12C3.80206 23.7333 2.56072 22.1133 1.67706 20.26C0.793394 18.4067 0.351562 16.4533 0.351562 14.4C0.351562 10.4 1.82433 7 4.76988 4.2C7.71542 1.4 11.2922 0 15.5001 0C19.0067 0 22.1135 0.98 24.8206 2.94C27.5277 4.9 29.288 7.45333 30.1016 10.6L32.2897 18.8C32.4299 19.3067 32.3318 19.7667 31.9951 20.18C31.6585 20.5933 31.2096 20.8 30.6486 20.8H27.2823V25.6C27.2823 26.48 26.9526 27.2333 26.2934 27.86C25.6342 28.4867 24.8417 28.8 23.9159 28.8H20.5496V30.4C20.5496 30.8533 20.3883 31.2333 20.0657 31.54C19.7431 31.8467 19.3433 32 18.8664 32H7.08424Z" fill="#3DCFB6"/>
</svg>
