<svg width="33" height="32" viewBox="0 0 33 32" fill="none" xmlns="http://www.w3.org/2000/svg">
<mask id="mask0_71165_828" style="mask-type:alpha" maskUnits="userSpaceOnUse" x="0" y="0" width="33" height="32">
<rect x="0.351562" width="32" height="32" fill="#D9D9D9"/>
</mask>
<g mask="url(#mask0_71165_828)">
<path d="M16.3439 28.5879C16.081 28.5879 15.8199 28.5434 15.5605 28.4545C15.3014 28.3656 15.0719 28.2249 14.8719 28.0322C13.7681 27.0249 12.6681 25.9434 11.5719 24.7879C10.4754 23.6323 9.49208 22.4341 8.62186 21.1932C7.75142 19.9525 7.04397 18.6896 6.49953 17.4045C5.95508 16.1192 5.68286 14.8506 5.68286 13.5989C5.68286 10.2655 6.75508 7.60997 8.89953 5.63219C11.044 3.65442 13.5273 2.66553 16.3495 2.66553C19.1718 2.66553 21.6551 3.65442 23.7995 5.63219C25.944 7.60997 27.0162 10.2655 27.0162 13.5989C27.0162 14.8506 26.744 16.1192 26.1995 17.4045C25.6551 18.6896 24.9476 19.9525 24.0772 21.1932C23.207 22.4341 22.2236 23.6323 21.1272 24.7879C20.031 25.9434 18.931 27.0249 17.8272 28.0322C17.6272 28.2249 17.3958 28.3656 17.1329 28.4545C16.87 28.5434 16.607 28.5879 16.3439 28.5879ZM16.3515 15.7765C17.0242 15.7765 17.5994 15.537 18.0772 15.0579C18.555 14.579 18.7939 14.0031 18.7939 13.3302C18.7939 12.6575 18.5543 12.0823 18.0752 11.6045C17.5963 11.1267 17.0204 10.8879 16.3475 10.8879C15.6749 10.8879 15.0996 11.1274 14.6219 11.6065C14.1441 12.0854 13.9052 12.6613 13.9052 13.3342C13.9052 14.0069 14.1448 14.5821 14.6239 15.0599C15.1028 15.5376 15.6786 15.7765 16.3515 15.7765Z" fill="#3DCFB6"/>
</g>
</svg>
