<svg width="42" height="60" viewBox="0 0 42 60" fill="none" xmlns="http://www.w3.org/2000/svg">
<path d="M35.2668 34.4576C33.1462 37.3661 30.9116 40.431 29.6783 43.9883H12.3271C11.0882 40.3892 8.80929 37.2789 6.65063 34.3327L6.62354 34.2957L6.62286 34.2948C6.01051 33.461 5.40694 32.6391 4.82776 31.8074L4.8267 31.8059C2.61386 28.6408 1.31714 24.7851 1.31714 20.625C1.31714 9.7893 10.127 1 21 1C31.8725 1 40.6828 9.78893 40.6828 20.6367C40.6828 24.796 39.3865 28.6407 37.1723 31.819L37.1721 31.8192C36.593 32.6508 35.9894 33.4727 35.377 34.3065L35.3749 34.3094L35.2668 34.4576ZM29.4012 50.625C29.4012 55.2498 25.6445 59 21 59C16.3554 59 12.5987 55.2498 12.5987 50.625V49.75H29.4012V50.625ZM9.71842 23.5C11.3022 23.5 12.5987 22.2112 12.5987 20.625C12.5987 16.0002 16.3554 12.25 21 12.25C22.5837 12.25 23.8802 10.9612 23.8802 9.375C23.8802 7.78883 22.5837 6.5 21 6.5C13.1761 6.5 6.83816 12.8162 6.83816 20.625C6.83816 22.2112 8.13463 23.5 9.71842 23.5Z" stroke="#00BEE8" stroke-width="2"/>
</svg>
