<svg width="42" height="41" viewBox="0 0 42 41" fill="none" xmlns="http://www.w3.org/2000/svg">
<path d="M20.5064 0.259766C9.17661 0.259766 2.993e-06 9.43637 2.993e-06 20.7661C-0.00232288 25.071 1.35099 29.2673 3.86795 32.7597C6.38491 36.252 9.93769 38.8632 14.0223 40.2226C15.0476 40.401 15.4311 39.7858 15.4311 39.2465C15.4311 38.7605 15.4044 37.1466 15.4044 35.4282C10.2532 36.3776 8.92028 34.1732 8.51015 33.0187C8.27843 32.4281 7.27977 30.6092 6.40825 30.1212C5.69052 29.7377 4.6652 28.7882 6.38159 28.7636C7.99749 28.737 9.14995 30.2503 9.53547 30.8655C11.381 33.9661 14.3299 33.0946 15.5069 32.5573C15.6874 31.2244 16.2246 30.3283 16.8152 29.8156C12.2526 29.3029 7.48483 27.5332 7.48483 19.6896C7.48483 17.4585 8.27843 15.6149 9.58673 14.1774C9.38167 13.6648 8.66395 11.5629 9.7918 8.74325C9.7918 8.74325 11.5082 8.20599 15.4311 10.8472C17.1004 10.3839 18.8252 10.1507 20.5576 10.1541C22.3007 10.1541 24.0437 10.3838 25.6842 10.8452C29.6051 8.17933 31.3235 8.7453 31.3235 8.7453C32.4513 11.5649 31.7336 13.6668 31.5286 14.1795C32.8348 15.6149 33.6305 17.4339 33.6305 19.6896C33.6305 27.5599 28.8381 29.3029 24.2755 29.8156C25.0178 30.4554 25.6596 31.6858 25.6596 33.6093C25.6596 36.351 25.633 38.5554 25.633 39.2485C25.633 39.7858 26.0185 40.4256 27.0438 40.2205C31.1144 38.8462 34.6515 36.23 37.1574 32.7401C39.6632 29.2503 41.0116 25.0625 41.0128 20.7661C41.0128 9.43637 31.8362 0.259766 20.5064 0.259766Z" fill="white"/>
</svg>
