<svg width="40" height="40" viewBox="0 0 40 40" fill="none" xmlns="http://www.w3.org/2000/svg">
<path d="M20 0C8.93333 0 0 8.93333 0 20C0 31.0667 8.93333 40 20 40C31.0667 40 40 31.0667 40 20C40 8.93333 31.0667 0 20 0ZM8.93333 7.33333C9.46667 6.93333 10.1333 6.66667 10.6667 6.66667C11.2 6.66667 12 6.93333 12.4 7.33333C12.8 7.86667 13.0667 8.4 13.0667 9.06667C13.0667 9.73333 12.8 10.4 12.2667 10.8C12 11.3333 11.3333 11.6 10.6667 11.6C10 11.6 9.33333 11.3333 8.93333 10.9333C8.53333 10.4 8.26667 9.73333 8.26667 9.06667C8.26667 8.4 8.53333 7.86667 8.93333 7.33333ZM13.2 28.8H8.26667V13.4667H13.2V28.8ZM31.7333 28.8H26.8V20.6667C26.8 15.7333 20.9333 16.1333 20.9333 20.6667V28.8H16.1333V13.4667H21.0667V15.4667C23.0667 11.7333 31.8667 11.4667 31.8667 19.0667V28.8H31.7333Z" fill="white"/>
</svg>
