<svg width="25" height="26" viewBox="0 0 25 26" fill="none" xmlns="http://www.w3.org/2000/svg">
<g clip-path="url(#clip0_389_6262)">
<path d="M12.4717 0.5C5.61225 0.5 0 6.11225 0 12.9717C0 19.8878 5.61225 25.5 12.4717 25.5C19.3878 25.5 24.9433 19.8878 24.9433 12.9717C25 6.11225 19.3878 0.5 12.4717 0.5ZM20.1247 6.96258L11.9615 20.398C11.678 20.8515 11.2245 21.1916 10.6576 21.1916C10.6009 21.1916 10.5442 21.1916 10.4875 21.1916C9.97732 21.1916 9.52381 20.9649 9.18367 20.6247L5.04535 15.8061C4.42177 15.1259 4.47846 14.0488 5.21542 13.4252C5.89569 12.8016 7.02948 12.8583 7.59637 13.5952L10.2608 16.6565L17.1769 5.20522C17.6871 4.41157 18.7075 4.12812 19.5011 4.63832C20.3515 5.09184 20.5782 6.16893 20.1247 6.96258Z" fill="#70E61C"/>
</g>
<defs>
<clipPath id="clip0_389_6262">
<rect width="25" height="25" fill="white" transform="translate(0 0.5)"/>
</clipPath>
</defs>
</svg>
