<svg width="60" height="60" viewBox="0 0 60 60" fill="none" xmlns="http://www.w3.org/2000/svg">
<path fill-rule="evenodd" clip-rule="evenodd" d="M36.9238 2H27.7546V15.8406C26.3857 15.4901 25.2529 15.373 23.7659 15.373C14.1836 15.373 8 21.3816 8 30.6399C8 40.2489 13.8296 45.252 25.0287 45.2638C28.7696 45.2638 32.2272 44.9142 36.9238 44.0258V2ZM24.9841 22.9466C26.117 22.9466 27.002 23.0634 28.0759 23.4142V37.9924C26.766 38.1678 25.9399 38.2249 24.9252 38.2249C20.2286 38.2249 17.6677 35.5598 17.6677 30.733C17.6677 25.7754 20.3464 22.9466 24.9841 22.9466Z" fill="white"/>
<path d="M51.9192 37.5431V16.5015H42.7617V34.4101C42.7617 42.3124 42.3486 45.3168 41.0389 47.9107C39.7879 50.4473 37.829 52.1095 33.7814 53.9905L42.2897 58C46.3374 55.9883 48.2963 54.1669 49.7833 51.2785C51.3764 48.2742 51.9192 44.7894 51.9192 37.5431Z" fill="white"/>
<path d="M51.0069 2H41.8376V11.3168H51.0069V2Z" fill="white"/>
</svg>
