<svg width="60" height="60" viewBox="0 0 60 60" fill="none" xmlns="http://www.w3.org/2000/svg">
<path d="M57.4557 25.2523C57.2997 25.1219 55.897 24.0541 52.8843 24.0541C52.1049 24.0541 51.2999 24.1322 50.5205 24.2626C49.9496 20.2759 46.6504 18.3477 46.521 18.243L45.7159 17.7738L45.1963 18.5295C44.5474 19.5459 44.0535 20.6927 43.768 21.8652C43.2227 24.1322 43.5606 26.2688 44.7034 28.0932C43.3265 28.8745 41.0931 29.0573 40.6258 29.083H3.74391C2.7828 29.083 2.00344 29.8643 2.00344 30.8294C1.95108 34.0604 2.49733 37.2915 3.61353 40.3408C4.88579 43.6765 6.78234 46.1519 9.22316 47.6632C11.9761 49.3573 16.4696 50.3213 21.5339 50.3213C23.8197 50.3213 26.1054 50.1129 28.3645 49.6961C31.5066 49.1231 34.5203 48.0287 37.299 46.4393C39.5847 45.1108 41.6364 43.4167 43.3768 41.4362C46.3115 38.1271 48.052 34.4269 49.3243 31.1435H49.8439C53.0384 31.1435 55.0129 29.8663 56.1035 28.7718C56.8305 28.0942 57.3757 27.2605 57.7659 26.3221L58 25.6445L57.4548 25.2533L57.4557 25.2523Z" fill="white"/>
<path d="M7.19545 28.035H12.1304C12.3645 28.035 12.572 27.8522 12.572 27.5915V23.1543C12.572 22.9192 12.3902 22.7108 12.1304 22.7108H7.19545C6.96134 22.7108 6.75391 22.8936 6.75391 23.1543V27.5915C6.77959 27.8522 6.96134 28.035 7.19545 28.035ZM13.9993 28.035H18.9343C19.1684 28.035 19.3758 27.8522 19.3758 27.5915V23.1543C19.3758 22.9192 19.1941 22.7108 18.9343 22.7108H13.9993C13.7652 22.7108 13.5578 22.8936 13.5578 23.1543V27.5915C13.5835 27.8522 13.7652 28.035 13.9993 28.035ZM20.9346 28.035H25.8695C26.1036 28.035 26.3111 27.8522 26.3111 27.5915V23.1543C26.3111 22.9192 26.1293 22.7108 25.8695 22.7108H20.9346C20.7004 22.7108 20.493 22.8936 20.493 23.1543V27.5915C20.493 27.8522 20.6748 28.035 20.9346 28.035ZM27.7651 28.035H32.7001C32.9342 28.035 33.1416 27.8522 33.1416 27.5915V23.1543C33.1416 22.9192 32.9599 22.7108 32.7001 22.7108H27.7651C27.531 22.7108 27.3235 22.8936 27.3235 23.1543V27.5915C27.3235 27.8522 27.531 28.035 27.7651 28.035ZM13.9993 21.6934H18.9343C19.1684 21.6934 19.3758 21.485 19.3758 21.2499V16.8128C19.3758 16.5777 19.1941 16.3692 18.9343 16.3692H13.9993C13.7652 16.3692 13.5578 16.552 13.5578 16.8128V21.2499C13.5835 21.485 13.7652 21.6934 13.9993 21.6934ZM20.9346 21.6934H25.8695C26.1036 21.6934 26.3111 21.485 26.3111 21.2499V16.8128C26.3111 16.5777 26.1293 16.3692 25.8695 16.3692H20.9346C20.7004 16.3692 20.493 16.552 20.493 16.8128V21.2499C20.493 21.485 20.6748 21.6934 20.9346 21.6934ZM27.7651 21.6934H32.7001C32.9342 21.6934 33.1416 21.485 33.1416 21.2499V16.8128C33.1416 16.5777 32.9342 16.3692 32.7001 16.3692H27.7651C27.531 16.3692 27.3235 16.552 27.3235 16.8128V21.2499C27.3235 21.485 27.531 21.6934 27.7651 21.6934ZM27.7651 15.3242H32.7001C32.9342 15.3242 33.1416 15.1414 33.1416 14.8806V10.4435C33.1416 10.2084 32.9342 10 32.7001 10H27.7651C27.531 10 27.3235 10.1827 27.3235 10.4435V14.8806C27.3235 15.1157 27.531 15.3242 27.7651 15.3242ZM34.647 28.035H39.582C39.8161 28.035 40.0235 27.8522 40.0235 27.5915V23.1543C40.0235 22.9192 39.8418 22.7108 39.582 22.7108H34.647C34.4129 22.7108 34.2055 22.8936 34.2055 23.1543V27.5915C34.2311 27.8522 34.4129 28.035 34.647 28.035Z" fill="white"/>
</svg>
