<svg width="60" height="60" viewBox="0 0 60 60" fill="none" xmlns="http://www.w3.org/2000/svg">
<path d="M56.9494 27.5334L32.4666 3.05057C31.0658 1.64981 28.7515 1.64981 27.3507 3.05057L22.2958 8.10549L28.7515 14.5612C30.2741 14.074 31.9793 14.3785 33.1365 15.5965C34.3545 16.8146 34.6591 18.5198 34.1718 20.0424L40.3839 26.2545C41.9065 25.7673 43.6118 26.0718 44.8298 27.2898C46.5351 28.9342 46.5351 31.6748 44.8298 33.3801C43.1245 35.0854 40.4448 35.0854 38.7395 33.3801C37.4606 32.1011 37.1561 30.2741 37.826 28.6906L32.0402 22.9048V38.1305C32.4666 38.3132 32.832 38.6177 33.1974 38.9222C34.9027 40.5666 34.9027 43.3072 33.1974 45.0125C31.4921 46.6569 28.8124 46.6569 27.1071 45.0125C25.4019 43.3072 25.4019 40.6275 27.1071 38.9222C27.5334 38.4959 28.0207 38.1914 28.5079 38.0087V22.6003C28.0207 22.4176 27.5334 22.0522 27.1071 21.6868C25.8282 20.4078 25.5237 18.5808 26.1936 16.9973L19.7988 10.6634L3.05057 27.4116C1.64981 28.8124 1.64981 31.1267 3.05057 32.5275L27.4725 56.9494C28.8733 58.3502 31.1876 58.3502 32.5884 56.9494L56.8885 32.6493C58.3502 31.1876 58.3502 28.9342 56.9494 27.5334Z" fill="white"/>
</svg>
