<svg width="60" height="60" viewBox="0 0 60 60" fill="none" xmlns="http://www.w3.org/2000/svg">
<path d="M2 2C20.6793 2 39.3207 2 58 2C58 20.6793 58 39.3585 58 58C39.3585 58 20.6793 58 2 58C2 39.2829 2 20.6415 2 2ZM52.1013 31.6448C50.9669 29.603 49.4166 28.2039 47.1857 27.7124C45.5976 27.3342 44.0094 27.3342 42.4213 27.6745C37.2789 28.7333 35.0858 34.9345 38.4132 39.056C39.5854 40.4929 41.1357 41.3626 42.7616 42.1188C44.1985 42.7995 45.6732 43.4423 47.1101 44.1607C48.0932 44.6523 48.5091 45.5598 48.3957 46.6563C48.2822 47.7529 47.526 48.3579 46.5807 48.6982C44.4632 49.4544 42.0054 48.7738 40.5685 46.9966C40.266 46.6185 39.9635 46.2026 39.661 45.7866C38.2242 46.6185 36.8251 47.4126 35.4261 48.2444C36.2957 49.946 37.5057 51.3072 39.1695 52.2147C42.0054 53.765 44.9926 53.9919 48.0554 53.2356C50.0594 52.7441 51.761 51.7232 52.8197 49.8704C54.7859 46.3538 53.6516 41.9676 50.1729 39.8123C48.6225 38.867 46.8832 38.2242 45.2573 37.3923C44.4632 36.9764 43.6313 36.5982 42.9507 36.0689C41.7407 35.0858 41.9676 33.1195 43.3288 32.3633C44.6523 31.607 46.5051 32.0608 47.526 33.3842C47.7529 33.6489 47.9041 33.9514 48.131 34.2539C49.4166 33.3842 50.74 32.5145 52.1013 31.6448ZM16.7468 48.8116C17.503 50.4375 18.5996 51.7232 20.1499 52.555C22.1539 53.6516 24.3471 53.8406 26.578 53.5003C28.582 53.1978 30.2458 52.2903 31.3423 50.4753C32.2498 48.9629 32.5145 47.2991 32.5145 45.5219C32.5145 39.7745 32.5145 34.027 32.5145 28.2795C32.5145 28.1283 32.5145 27.9392 32.5145 27.7502C30.7373 27.7502 29.0358 27.7502 27.2586 27.7502C27.2586 27.977 27.2586 28.1661 27.2586 28.393C27.2586 34.0648 27.2586 39.6988 27.2586 45.3707C27.2586 45.9001 27.2208 46.4673 27.1452 46.9966C26.9939 47.8663 26.5402 48.5091 25.6705 48.7738C24.0446 49.2654 22.7211 48.7738 21.7758 47.3747C21.549 46.9966 21.3221 46.6185 21.0574 46.2404C19.5827 47.1101 18.1837 47.9419 16.7468 48.8116Z" fill="white"/>
</svg>
