<svg width="60" height="60" viewBox="0 0 60 60" fill="none" xmlns="http://www.w3.org/2000/svg">
<path fill-rule="evenodd" clip-rule="evenodd" d="M31.3471 56.7207C32.3662 57.5635 33.5611 57.9229 34.8509 57.9895C35.3844 58.0173 35.9332 57.9912 36.4581 57.8956C37.2907 57.7444 38.121 57.5544 38.9308 57.3104C40.5801 56.8128 42.0053 55.9529 43.0693 54.5641C43.6756 53.7725 44.1732 52.9166 44.4928 51.9702C44.7567 51.1894 45.0047 50.4006 45.202 49.6016C45.3578 48.972 45.4352 48.322 45.5296 47.6788C45.5927 47.2534 45.6308 46.8234 45.67 46.394C45.7337 45.6974 45.8003 45.0019 45.8463 44.3035C45.8788 43.8178 45.8776 43.3298 45.8964 42.8436C45.9026 42.6952 45.9265 42.5479 45.9408 42.4006C45.9527 42.2635 46.0221 42.2163 46.162 42.2186C46.6533 42.226 47.1459 42.2385 47.6366 42.2163C48.1866 42.1918 48.7405 42.168 49.2819 42.0775C50.0524 41.9485 50.8167 41.7853 51.5727 41.5884C52.4644 41.3547 53.2828 40.9367 54.071 40.4613C54.9878 39.9068 55.8249 39.2567 56.5023 38.419C57.0932 37.6899 57.373 36.8448 57.2302 35.923C57.0232 34.5836 55.8977 33.7061 54.5891 33.6464C54.1148 33.6248 53.6337 33.6749 53.1617 33.7346C52.5901 33.8074 52.0271 33.9359 51.4572 34.0206C51.0637 34.0798 50.665 34.1059 50.2726 34.1469L50.2618 34.0957C50.9954 32.7098 51.7598 31.3397 52.4536 29.935C52.9865 28.8567 53.4415 27.7404 53.9118 26.6314C54.6909 24.7956 55.3125 22.9035 55.8278 20.9795C56.3208 19.1381 56.7428 17.2767 56.8765 15.3658C56.9299 14.6032 56.9669 13.8371 56.9618 13.0733C56.9584 12.4637 56.8924 11.8535 56.8315 11.2461C56.7622 10.55 56.5517 9.89028 56.2606 9.2556C55.8773 8.41846 55.2818 7.73203 54.6557 7.08028C54.1546 6.55821 53.603 6.08277 53.0564 5.60733C52.2767 4.92942 51.3998 4.38744 50.4899 3.90688C49.4584 3.35902 48.3657 2.93522 47.2346 2.64435C46.5453 2.47056 45.8516 2.31487 45.1542 2.17744C44.9063 2.12739 44.656 2 44.4064 2H39.7043C39.5342 2 39.3659 2.11147 39.1947 2.13023C38.0694 2.25307 36.9582 2.48253 35.8763 2.81553C35.4725 2.94008 35.104 2.86728 34.7201 2.83145C34.4255 2.80416 34.136 2.72852 33.8415 2.71373C32.7205 2.658 31.5985 2.57724 30.477 2.58918C29.4032 2.60056 28.3403 2.77799 27.3013 3.07259C26.4317 3.32054 25.5804 3.62139 24.8001 4.0792C24.4668 4.27484 24.2018 4.23787 23.8566 4.13892C22.6973 3.79928 21.5278 3.49507 20.35 3.22671C19.6157 3.06235 18.8599 2.97932 18.1098 2.90197C17.3899 2.8272 16.6672 2.78223 15.9436 2.76719C15.2373 2.75183 14.5264 2.7524 13.8229 2.81496C12.7031 2.91449 11.6049 3.14197 10.5369 3.50936C9.35955 3.91187 8.25946 4.51211 7.28385 5.2843C6.28861 6.07196 5.49014 7.03251 4.8492 8.13069C4.17301 9.28915 3.70837 10.5295 3.4206 11.8313C2.85113 14.4012 2.89571 17.2871 3.33985 19.8893C3.47293 20.6753 3.59292 21.4584 3.75444 22.2387C3.98021 23.3289 4.19576 24.418 4.44599 25.5031C4.62797 26.293 4.82532 27.0784 5.042 27.8592C5.37185 29.0524 5.69374 30.2472 6.06738 31.4262C6.41486 32.5221 6.81068 33.6021 7.20594 34.6826C7.74752 36.1768 8.41137 37.6237 9.19073 39.0088C9.87034 40.2093 10.6455 41.3337 11.6862 42.2578C12.3727 42.8675 13.1353 43.3355 14.0231 43.5698C14.7165 43.754 15.4434 43.7743 16.1461 43.629C16.9606 43.4635 17.7215 43.0991 18.3612 42.5683C18.4362 42.5075 18.5176 42.4603 18.6069 42.5729C18.9447 43.0006 19.3962 43.286 19.8688 43.5323C21.1439 44.1977 22.5332 44.3973 23.9442 44.4781C24.2866 44.4974 24.6312 44.4485 24.9753 44.4394C25.6469 44.4206 26.2987 44.2898 26.9396 44.1044C27.2763 44.0072 27.6044 43.8832 27.9468 43.7683C27.9644 44.1329 27.9872 44.4832 27.9985 44.8341L28.0457 46.7466C28.0548 47.0378 28.0662 47.329 28.0929 47.619C28.1623 48.3663 28.23 49.1136 28.3193 49.8586C28.3807 50.3722 28.4455 50.8891 28.5661 51.3907C28.8085 52.4016 29.14 53.3889 29.5568 54.3412C29.9558 55.2655 30.5696 56.0812 31.3471 56.7207ZM29.3049 47.1846C29.2645 46.2866 29.2343 45.3881 29.2144 44.4894C29.1905 43.385 29.1826 42.28 29.1672 41.1756L29.1644 41.1335C28.6031 41.4707 28.0497 41.8392 27.4645 42.1435C26.7781 42.5001 26.0331 42.7065 25.2613 42.7651C24.6568 42.8106 24.0432 42.8521 23.4415 42.8044C22.4542 42.7242 21.4669 42.57 20.5831 42.0832C20.2248 41.8859 19.8506 41.6453 19.6032 41.3308C19.0112 40.575 19.295 39.6201 20.1879 39.1606C20.8049 38.8422 21.4783 38.7096 22.1471 38.555C22.7292 38.423 23.3053 38.2655 23.8737 38.0829C24.4344 37.8992 24.7882 37.4443 25.1379 36.9978L25.6918 36.2858L25.0259 36.2164C24.365 36.155 23.7343 35.9724 23.1315 35.7051C22.6163 35.4771 22.6083 35.4521 22.2295 35.8627C21.5983 36.548 20.9841 37.2503 20.3647 37.9476C19.9092 38.4605 19.4571 38.9764 19.0027 39.491C18.5545 40 18.1337 40.5375 17.6497 41.0106C16.932 41.7136 16.0664 42.1361 15.0337 42.0883C14.3711 42.0576 13.7649 41.8256 13.2189 41.4463C12.0934 40.6626 11.3353 39.565 10.6444 38.4133C9.76001 36.937 9.0804 35.3645 8.49975 33.7494C8.09767 32.6324 7.69332 31.5149 7.34299 30.382C6.96139 29.1508 6.62642 27.9053 6.29714 26.6587C6.04804 25.7186 5.82738 24.7706 5.61696 23.8208C5.37472 22.7413 5.15062 21.6577 4.94475 20.5706C4.80769 19.8364 4.72864 19.0914 4.61774 18.3527C4.46817 17.3557 4.44087 16.3508 4.49547 15.3505C4.54381 14.4491 4.6729 13.5505 4.80143 12.6553C4.97944 11.4167 5.38777 10.248 5.97468 9.14413C6.33672 8.47146 6.78045 7.84608 7.29579 7.28218C8.14317 6.34437 9.16855 5.66704 10.3094 5.15805C11.1061 4.8026 11.9484 4.58934 12.8066 4.42157C14.0805 4.17361 15.3658 4.18385 16.6511 4.21001C17.213 4.22195 17.7731 4.32375 18.3344 4.38005C19.5435 4.50005 20.7281 4.75483 21.898 5.06819C22.751 5.29681 23.5865 5.59368 24.4316 5.85073C24.5158 5.87633 24.6403 5.87405 24.7103 5.82912C25.8562 5.0807 27.1079 4.58706 28.4404 4.30441C28.946 4.19749 29.4681 4.15029 29.985 4.11731C30.6129 4.07807 31.247 4.04053 31.8737 4.0775C32.6273 4.12072 33.3785 4.23162 34.1275 4.33398C34.4915 4.38403 34.8464 4.50972 35.2103 4.54384C35.3855 4.56033 35.5703 4.43351 35.7546 4.39029C36.6952 4.17247 37.6319 3.93077 38.5811 3.75959C39.2874 3.6322 40.0097 3.57191 40.7274 3.53097C41.5293 3.4849 42.3357 3.45135 43.1364 3.49002C44.1488 3.53893 45.1537 3.68281 46.1455 3.91371C47.375 4.19977 48.5534 4.61493 49.6743 5.1916C50.512 5.62325 51.3077 6.12258 52.0248 6.73678C52.4946 7.14 52.9757 7.53753 53.3994 7.98681C53.9226 8.54073 54.456 9.09408 54.7848 9.80327C55.0321 10.3384 55.2084 10.8923 55.2574 11.4775C55.3176 12.2061 55.391 12.9369 55.3848 13.6665C55.3785 14.3637 55.2829 15.0604 55.2158 15.7565C55.0617 17.3421 54.7176 18.8935 54.2985 20.4245C53.9488 21.6891 53.5525 22.9403 53.1105 24.1757C52.7073 25.3148 52.2415 26.4329 51.7712 27.547C51.4245 28.3719 51.0481 29.184 50.6428 29.9817C49.8728 31.4899 49.0721 32.9827 48.1456 34.4045C47.9858 34.6496 47.834 34.901 47.6782 35.1518C48.0825 35.4242 48.5403 35.5203 49.001 35.5704C49.4395 35.6176 49.8865 35.6466 50.3244 35.6136C51.0256 35.5613 51.7245 35.4612 52.4218 35.3639C53.1122 35.2672 53.7884 35.071 54.4981 35.1228C55.2056 35.1745 55.7129 35.7125 55.6646 36.3757C55.6338 36.7954 55.4411 37.1554 55.1624 37.463C53.8458 38.9155 52.1931 39.7959 50.3028 40.2298C49.5845 40.3947 48.844 40.4795 48.1087 40.5483C47.4807 40.6037 46.8498 40.6185 46.22 40.5926C45.7582 40.5756 45.3004 40.4698 44.8284 40.4016C44.7806 40.8332 44.7357 41.2831 44.6811 41.7312L44.461 43.4504C44.3944 43.9952 44.3427 44.5423 44.2739 45.0872C44.2068 45.6161 44.1232 46.1421 44.0526 46.6704C43.9872 47.1624 43.9389 47.6572 43.865 48.1485C43.7529 48.9015 43.6454 49.6562 43.4981 50.4035C43.3218 51.2963 43.0523 52.1608 42.6104 52.9666C42.0724 53.9499 41.3098 54.6989 40.3384 55.2534C39.3375 55.825 38.2427 56.1224 37.1343 56.3715C36.3483 56.5484 35.5402 56.5768 34.7446 56.5046C33.3654 56.38 32.1882 55.7903 31.2982 54.7205C30.4491 53.6997 29.8741 52.5304 29.6688 51.2059C29.5722 50.5757 29.4971 49.9423 29.4436 49.307C29.382 48.6006 29.3358 47.8929 29.3049 47.1846ZM30.8552 38.1114C30.8637 38.5834 30.8148 39.0554 30.8171 39.5274C30.8267 41.7244 30.8426 43.9219 30.8614 46.1194C30.8648 46.4782 30.8825 46.8382 30.9081 47.1965C30.9621 47.9472 31.0155 48.6985 31.0883 49.4469C31.1407 49.9786 31.2117 50.5087 31.2953 51.0364C31.4148 51.7831 31.7549 52.4485 32.1404 53.0849C32.4726 53.632 32.9054 54.0961 33.4746 54.4168C34.4426 54.9611 35.4839 55.0066 36.5337 54.8064C37.2429 54.6716 37.9401 54.4538 38.6283 54.2292C39.3056 54.0119 39.9239 53.6421 40.4356 53.148C40.9185 52.6806 41.2608 52.1101 41.4917 51.4806C41.9393 50.2601 42.0798 48.9743 42.2646 47.6992C42.334 47.2215 42.3943 46.7427 42.4574 46.2644C42.5296 45.7201 42.6024 45.1764 42.6718 44.6322C42.7241 44.2261 42.7708 43.8206 42.8202 43.4151C42.8913 42.8328 42.9658 42.251 43.0335 41.6686C43.0853 41.2182 43.1285 40.7661 43.1751 40.3145C43.2343 39.7373 43.2974 39.1618 43.3491 38.5834C43.3878 38.1455 43.3719 37.699 43.4498 37.2685C43.5926 36.4797 43.9656 35.8087 44.6651 35.3742C44.9575 35.1933 45.2884 35.0739 45.6126 34.9203L45.5569 34.8356C45.2572 34.4466 44.9501 34.0639 44.656 33.6703C44.1942 33.0527 43.8621 32.364 43.5283 31.6719C43.2121 31.0156 42.8254 30.3945 42.4927 29.7456C41.912 28.6139 41.3206 27.485 40.7854 26.3322C40.1126 24.882 39.5826 23.3818 39.416 21.7757C39.3449 21.0967 39.3267 20.4177 39.4649 19.7449C39.6849 18.67 40.2457 17.8295 41.1898 17.2528C42.0656 16.7182 43.0409 16.5453 44.0401 16.4913C44.66 16.4577 45.2839 16.485 45.9271 16.485L45.9061 16.3764C45.5057 15.5393 45.132 14.6879 44.6936 13.8712C44.076 12.7179 43.2843 11.6783 42.4039 10.7132C41.7543 9.99559 41.0405 9.33884 40.2713 8.75115C39.5104 8.17505 38.7085 7.66037 37.8526 7.24009C36.8358 6.73433 35.762 6.35245 34.6541 6.10267C33.5821 5.86495 32.5044 5.71936 31.4045 5.70742C30.4673 5.69718 29.5358 5.7404 28.6224 5.95139C27.2439 6.27044 25.983 6.83801 24.8871 7.75705C24.2801 8.26585 23.7379 8.84725 23.2726 9.4882C22.7226 10.2417 22.2802 11.0573 21.9014 11.9109C21.3816 13.083 21.025 14.3018 20.7805 15.5552C20.6588 16.1808 20.5632 16.8103 20.466 17.4399C20.4319 17.6611 20.4296 17.8858 20.4091 18.1388L20.8254 17.9222L21.2315 17.7402C22.606 17.1118 24.0295 16.7074 25.5593 16.7535C26.2099 16.7728 26.831 16.9019 27.4099 17.1868C28.5189 17.7339 29.1672 18.6638 29.4493 19.8399C29.6438 20.652 29.7775 21.48 29.9071 22.3063C30.0084 22.9513 30.1124 23.603 30.1238 24.2536C30.1403 25.2045 30.0925 26.1576 30.0408 27.108C29.9965 27.9161 29.8293 28.7127 29.5449 29.4704C29.0307 30.8444 28.4575 32.1962 27.9223 33.5623C27.7455 34.0138 27.6095 34.4807 27.4429 34.9772L28.1185 34.9778C28.2004 34.9795 28.284 34.9818 28.3631 35.0005C28.9779 35.1455 29.5119 35.4242 29.9492 35.8974C30.5338 36.5252 30.8398 37.26 30.8552 38.1114ZM19.113 31.5968C18.7645 30.7768 18.5543 29.9047 18.4908 29.016C18.4317 28.1777 18.5312 27.344 18.6177 26.5091C18.7007 25.701 18.7712 24.8889 18.7951 24.0779C18.8355 22.7431 18.7456 21.4118 18.6819 20.0781C18.6438 19.2842 18.736 18.4806 18.8065 17.685C18.8702 16.9684 18.9498 16.2502 19.0857 15.5438C19.3126 14.3586 19.6146 13.1905 20.044 12.0582C20.4506 10.9845 20.9192 9.93976 21.5789 8.99854C22.0322 8.35249 22.5452 7.75022 23.0382 7.11896L22.8915 7.06664C21.2861 6.55707 19.6539 6.15784 17.9745 5.98438C17.1811 5.90192 16.3843 5.85415 15.5887 5.80637C15.3442 5.79216 15.0962 5.82514 14.8511 5.84846C14.2443 5.90704 13.6295 5.92978 13.0324 6.04353C12.0161 6.23689 11.0407 6.56219 10.1382 7.09166C9.33947 7.56166 8.63922 8.18176 8.07606 8.91778C7.4465 9.73161 7.02167 10.6518 6.71741 11.6322C6.35799 12.7896 6.18624 13.981 6.14017 15.1827C6.0998 16.2365 6.07989 17.296 6.26188 18.3459C6.39666 19.1267 6.48709 19.9166 6.63609 20.6952C6.83639 21.7567 7.06128 22.8135 7.31058 23.8646C7.67057 25.3683 8.03113 26.8731 8.45823 28.3586C8.86657 29.7809 9.32665 31.1907 9.82712 32.5841C10.2355 33.7209 10.708 34.8367 11.2057 35.9372C11.5298 36.6543 11.9222 37.3447 12.334 38.0158C12.7713 38.729 13.2695 39.4057 13.944 39.9233C14.7965 40.5761 15.4556 40.6779 16.3224 39.9608C16.6932 39.6543 17.0065 39.2744 17.3295 38.9132C17.8419 38.34 18.3367 37.7497 18.8474 37.1736C19.4975 36.4405 20.1555 35.7148 20.8089 34.984C20.9471 34.8299 21.0807 34.6707 21.215 34.5148L20.9915 34.3198C20.1857 33.5501 19.5464 32.6233 19.113 31.5968ZM43.7615 9.75663C44.2959 10.3775 44.803 11.0215 45.2811 11.6868C46.1974 12.9718 46.935 14.3753 47.4734 15.8589C47.7123 16.5157 47.9034 17.1789 47.8181 17.8971C47.7589 18.4004 47.7629 18.9106 47.7191 19.4167C47.6821 19.8376 47.615 20.2562 47.561 20.6759C47.4791 21.3083 47.3608 21.9395 47.3256 22.5748C47.2914 23.1799 47.3273 23.7907 47.3654 24.3964C47.4035 25.0123 47.4865 25.6253 47.5428 26.2395C47.6065 26.9374 47.6929 27.6334 47.7123 28.3324C47.7282 28.9057 47.677 29.4818 47.6275 30.055C47.564 30.7419 47.3972 31.4152 47.1328 32.0523C46.9491 32.5039 46.7301 32.9407 46.5237 33.3922L46.6067 33.4798L46.733 33.5776L46.8609 33.3501C47.9349 31.6604 48.889 29.8974 49.7164 28.0742C50.2469 26.8974 50.7502 25.7085 51.2258 24.5084C51.9673 22.6429 52.5664 20.7239 53.0178 18.7678C53.2225 17.8897 53.3795 16.998 53.5182 16.1063C53.6269 15.409 53.7167 14.7038 53.7372 14.0003C53.7582 13.2542 53.7173 12.5024 53.6485 11.7585C53.5967 11.1966 53.458 10.6313 53.1065 10.1735C52.5401 9.43815 51.9293 8.73523 51.178 8.17846C50.545 7.71041 49.9138 7.22872 49.2353 6.83517C48.1587 6.21016 46.9934 5.795 45.7758 5.51178C44.5867 5.23482 43.3833 5.11539 42.1719 5.0898C41.4576 5.07444 40.7399 5.15122 40.0273 5.2189C39.3813 5.27918 38.7392 5.38269 38.0891 5.46799C38.787 5.8604 39.4757 6.20959 40.124 6.62077C41.4889 7.4852 42.7128 8.52537 43.7615 9.75663ZM26.0291 33.9626C26.4698 32.5522 27.071 31.2044 27.6528 29.8497C28.1254 28.7504 28.383 27.5931 28.4689 26.4033C28.5115 25.817 28.5001 25.2233 28.4711 24.6352C28.4428 23.981 28.3829 23.3284 28.2914 22.68C28.1691 21.8531 28.0304 21.0256 27.8347 20.2141C27.6226 19.336 27.088 18.724 26.1713 18.4983C25.6134 18.3612 25.0583 18.3669 24.4936 18.4562C23.1156 18.6729 21.8542 19.1807 20.6792 19.9246C20.4427 20.0742 20.3118 20.1953 20.3534 20.5337C20.4398 21.2525 20.4586 21.9828 20.4552 22.7079C20.4506 23.7344 20.4068 24.7609 20.3682 25.7869C20.3556 26.1207 20.3073 26.4539 20.2709 26.7866C20.2163 27.2962 20.11 27.8052 20.1134 28.3142C20.1168 28.8386 20.1702 29.3748 20.2976 29.8827C20.702 31.4933 21.5573 32.8104 22.9603 33.7403C23.8231 34.3124 24.7774 34.6001 25.8255 34.6553C25.8949 34.4147 25.9591 34.1878 26.0291 33.9626ZM24.3821 20.1492C24.1973 19.7619 24.3031 19.4406 24.7307 19.2916C24.8354 19.2558 24.9423 19.216 25.0503 19.2057C25.1999 19.191 25.3506 19.2018 25.5013 19.2018C26.0444 19.2052 26.5665 19.2808 27.0141 19.6255C27.3019 19.8472 27.3792 20.1401 27.1927 20.4427C26.9282 20.8709 26.5261 21.0859 26.0314 21.1268C25.2528 21.1911 24.7063 20.8283 24.3821 20.1492ZM45.9789 20.0076L46.1557 18.4579C46.1813 18.2509 46.0727 18.194 45.8987 18.1889C45.351 18.1741 44.8039 18.1542 44.2562 18.1451C43.6398 18.1337 43.0386 18.2327 42.4676 18.467C41.8341 18.728 41.3518 19.1455 41.1545 19.8353C41.0101 20.3436 40.9645 20.8749 41.0203 21.4004C41.0973 22.2135 41.2814 23.0128 41.5679 23.7776C41.9513 24.7973 42.3516 25.8164 42.831 26.7935C43.4799 28.1157 44.2136 29.3965 44.9029 30.6988C45.0866 31.0463 45.2424 31.4097 45.434 31.8152C45.8211 31.0085 46.0324 30.1288 46.0539 29.2344C46.0727 28.4945 46.0141 27.7529 45.9709 27.013C45.9442 26.5603 45.8799 26.1099 45.8361 25.6583C45.7753 25.0293 45.682 24.3998 45.6672 23.7691C45.653 23.1276 45.6985 22.4826 45.7531 21.8417C45.8043 21.2286 45.9055 20.6196 45.9789 20.0076ZM44.7453 19.5106C44.5417 20.0719 44.1072 20.3892 43.5431 20.4819C43.0176 20.5689 42.5569 20.375 42.2146 19.9553C41.9706 19.6567 42.0639 19.3036 42.4295 19.1011C42.8493 18.8691 43.3105 18.8105 43.8547 18.7752C44.0032 18.802 44.225 18.8253 44.4365 18.885C44.7431 18.9714 44.8568 19.2035 44.7453 19.5106ZM28.4814 36.8011C28.1811 36.5554 27.783 36.5411 27.4975 36.8107C27.1426 37.1463 26.8304 37.5296 26.5182 37.9072C26.1582 38.344 25.8192 38.7978 25.3552 39.1362C24.679 39.6281 23.889 39.8317 23.0963 40.0245C22.4661 40.1781 21.8326 40.3208 21.2007 40.4675L21.1928 40.5494C21.3805 40.6359 21.5619 40.7445 21.7581 40.8065C22.722 41.1113 23.7031 41.2637 24.7222 41.1773C25.457 41.1141 26.1576 40.9538 26.8213 40.6393C27.7352 40.2065 28.4387 39.5201 29.0364 38.7227C29.1365 38.5896 29.182 38.3929 29.1934 38.2211C29.2338 37.6149 28.9261 37.1639 28.4814 36.8011ZM46.0801 36.5383C45.6075 36.697 45.223 36.9387 45.1087 37.4499C45.0308 37.7957 45.0024 38.1534 44.9722 38.5078C44.9666 38.5703 45.0445 38.6852 45.1036 38.7011C45.4676 38.7972 45.8338 38.9104 46.2058 38.9439C46.6636 38.9855 47.1288 38.9724 47.5894 38.9496C48.0865 38.9246 48.587 38.8922 49.0772 38.8103C50.2311 38.6158 51.3486 38.3007 52.3404 37.6456C52.6987 37.4096 53.0525 37.1684 53.4085 36.9284L53.3789 36.8778C52.9996 36.9341 52.6214 37.0029 52.2404 37.0433C51.4646 37.1264 50.6883 37.2139 49.9098 37.2589C49.5339 37.2805 49.1528 37.2082 48.7741 37.1775C48.1382 37.1258 47.5172 36.9847 46.9798 36.6447C46.6698 36.449 46.4105 36.4274 46.0801 36.5383Z" fill="white"/>
</svg>
