<svg width="60" height="60" viewBox="0 0 60 60" fill="none" xmlns="http://www.w3.org/2000/svg">
<path d="M51.3553 20.2924C51.4037 18.095 49.9889 15.8391 48.3931 14.0023C48.2808 13.8742 48.1669 13.7476 48.0546 13.6226C47.6085 13.1322 47.1546 12.6766 46.7225 12.2684C45.2936 10.9158 44.0909 10.0568 44.0909 10.0568C36.0154 3.98026 28.4141 4.0293 23.7345 4.97851C23.6003 5.00698 23.4677 5.03388 23.3383 5.06235C23.1433 5.10665 22.9545 5.15095 22.772 5.19524C22.7112 5.21106 22.6504 5.22688 22.5911 5.24112C22.5303 5.25694 22.471 5.27276 22.4133 5.28858C21.8876 5.4278 21.4134 5.57335 21 5.71415C20.9142 5.7442 20.8315 5.77268 20.7504 5.80116C20.7005 5.81856 20.6522 5.83596 20.6038 5.85336C20.5305 5.88026 20.4603 5.90715 20.3917 5.93246C20.3542 5.9467 20.3168 5.96094 20.2809 5.97518C20.27 5.97834 20.2606 5.98151 20.2497 5.98625C20.1904 6.0084 20.1343 6.03055 20.0797 6.0527C20.0298 6.07168 19.9814 6.09067 19.9362 6.10965C19.9034 6.12389 19.8722 6.13654 19.841 6.1492C19.7927 6.16977 19.7474 6.18875 19.7037 6.20773C19.593 6.25361 19.4963 6.29791 19.4105 6.33588C19.2373 6.41498 19.1157 6.4751 19.0486 6.50832C19.033 6.51623 19.019 6.52414 19.0096 6.52888C19.0096 6.52888 19.0065 6.53047 19.0049 6.53205C18.9956 6.53521 18.9909 6.53838 18.9878 6.53996C18.9862 6.54154 18.9846 6.54154 18.9846 6.54154C8.67226 11.1768 5.62581 21.3223 5.62581 21.3223C5.13912 22.9122 4.69768 24.48 4.41066 26.1142C4.38258 26.2835 4.35606 26.4528 4.33111 26.6221C3.77111 30.3873 4.1174 34.0338 5.21712 37.5016C5.43082 38.1835 5.67572 38.8574 5.9487 39.5234C5.91127 39.3621 5.86759 39.1706 5.86759 39.1706C5.86759 39.1706 4.94102 34.6461 5.80207 30.3018C5.80207 30.3018 6.55238 25.7789 9.60039 22.2842C9.60039 22.2842 14.5452 15.1414 23.7532 17.94C23.7532 17.94 25.7405 18.6566 26.4253 19.0157C27.1101 19.3511 28.3018 19.8669 28.3018 19.8669C34.8159 23.0689 40.3363 24.0766 40.3363 24.0766C52.0183 26.07 51.3553 20.2924 51.3553 20.2924ZM29.6262 11.4774L21.5007 8.91456C21.4571 8.91456 21.2371 8.80382 20.8393 8.91456C20.8393 8.91456 16.4015 10.0568 17.1736 12.5216C17.1736 12.5216 17.6369 14.0656 18.8957 15.5669L27.8463 15.211L27.7371 15.4404C27.6373 15.6476 27.4345 15.7837 27.2068 15.7948L18.9254 16.1982C18.916 16.1998 18.9051 16.1998 18.8957 16.1998C18.7132 16.1998 18.5401 16.1175 18.42 15.9767C17.0941 14.3947 16.5965 12.7731 16.5762 12.7051C16.3718 12.0549 16.4374 11.3888 16.7649 10.7908C17.6821 9.11706 20.3807 8.37984 20.6849 8.30232C20.844 8.25645 21.014 8.23272 21.1778 8.23272C21.3869 8.23272 21.5366 8.27227 21.613 8.29283C21.638 8.29758 21.663 8.30391 21.6864 8.31023L29.2159 10.6848C29.3906 10.7402 29.531 10.8684 29.6043 11.0376C29.6636 11.1768 29.6714 11.3335 29.6262 11.4774ZM37.775 14.6699C37.7672 15.3249 37.2431 15.8549 36.5926 15.858H36.5832C35.9296 15.8596 35.3993 15.3296 35.3899 14.6699V14.6478C35.3884 13.9833 35.9172 13.4423 36.5739 13.4391H36.5832C37.2384 13.436 37.7719 13.9723 37.775 14.6383V14.6699Z" fill="white"/>
<path d="M4.26998 36.4812C3.73962 35.8468 3.24514 35.1823 2.82085 34.4673C2.4886 33.8629 2.13606 33.2127 2.02531 32.5198C1.91456 31.8253 2.17974 31.153 2.57751 30.5929C2.86453 30.1674 3.21862 29.832 3.39489 29.3162C3.4214 29.245 3.4448 29.1738 3.46508 29.1011C3.35745 31.5817 3.62575 34.048 4.26998 36.4812Z" fill="white"/>
<path d="M5.22804 37.5127C5.22804 37.5127 5.22024 37.5063 5.21712 37.5016C4.1174 34.0338 3.77111 30.3873 4.33111 26.6221C3.77735 30.3841 4.12988 34.0417 5.22804 37.5127Z" fill="white"/>
<path d="M19.4102 6.33591C19.4959 6.29794 19.5927 6.25364 19.7034 6.20776C19.5942 6.25364 19.4959 6.29794 19.4102 6.33591Z" fill="white"/>
<path d="M27.2329 3.90431C22.299 4.14636 19.0342 5.80273 18.7129 5.97201C13.2595 8.4273 9.83401 12.4092 7.91848 15.3186C5.84071 18.4763 5.06077 21.0312 5.02957 21.1341C4.56785 22.6417 4.09989 24.2744 3.79571 26.0067C3.70368 26.5477 3.63036 27.0872 3.57576 27.6267C3.34802 25.3043 1.40753 22.9233 2.68819 20.6278C3.12964 19.8669 3.72551 19.1502 4.43214 18.6123C6.11057 17.2913 6.86088 16.619 6.97163 14.246C7.0153 13.4391 6.99347 12.6101 7.08238 11.8049C7.17129 10.7734 7.50199 9.87801 8.31937 9.20723C9.06967 8.60132 10.0196 8.26593 10.9462 8.10931C11.8509 7.95269 12.7354 8.01914 13.6183 7.68375C14.6338 7.30248 15.5167 6.63171 16.2451 5.82488C16.8862 5.10823 17.4603 4.32513 18.1451 3.60847C20.4194 1.21172 24.1724 1.77175 26.6901 3.474C26.8523 3.58316 27.0473 3.74294 27.2329 3.90431Z" fill="white"/>
<path d="M3.57608 27.6267C3.52305 28.1187 3.48717 28.6107 3.46533 29.1011C3.58388 28.6977 3.61196 28.2801 3.59324 27.8608C3.59012 27.7833 3.58388 27.7042 3.57608 27.6267Z" fill="white"/>
<path d="M57.3821 41.0738C57.3821 41.0738 55.6382 48.0615 46.9606 54.108C46.9606 54.108 37.5326 61.0942 23.7308 56.3465C23.7308 56.3465 14.4121 53.3455 8.6717 44.657C8.40029 44.2457 8.13978 43.8296 7.8902 43.4104C7.80285 43.0719 7.66714 42.746 7.52831 42.4264C5.94815 38.7877 5.64553 34.3011 6.413 30.4268C6.41456 30.4205 6.41612 30.4141 6.41612 30.4062C6.42391 30.3635 7.1711 26.024 10.0678 22.7034C10.0818 22.686 10.0974 22.667 10.1099 22.648C10.1427 22.6021 13.4761 17.9225 19.5737 17.9225C20.8622 17.9225 22.2021 18.1314 23.5592 18.5411C24.113 18.742 25.612 19.3021 26.1377 19.5773C26.1439 19.5805 26.1486 19.5837 26.1533 19.5852C26.5168 19.764 27.0112 19.9871 27.4059 20.1627C25.2236 20.8224 19.9247 22.9597 17.8797 28.5331C15.2747 35.6316 18.8733 41.8569 18.8733 41.8569C18.8733 41.8569 21.3239 46.7168 26.6681 48.957C26.6681 48.957 22.4065 45.1047 22.5172 40.9614L22.5391 40.9836C22.6935 41.2082 23.489 42.0594 23.489 42.0594C24.3719 43.0228 25.3203 43.9182 26.314 44.7472C31.5926 49.2022 38.0178 51.5103 44.8625 49.8745C44.8625 49.8745 39.6291 50.2099 36.1412 46.247C36.1412 46.247 44.4367 46.6504 52.0973 38.2594C51.8898 38.4476 48.0307 41.8743 42.8316 40.895C42.8316 40.895 47.6235 38.3195 51.0022 31.1086C51.0022 31.1086 55.0205 23.1353 51.9959 16.5968C51.9959 16.5968 59.3928 23.5387 51.9522 35.0257C52.0364 34.9688 54.7584 33.0862 57.7362 26.5176C57.7362 26.5176 59.3476 33.4374 54.6009 39.9996C54.6009 39.9996 52.4373 43.8739 47.3583 46.1125C47.3583 46.1125 50.383 46.6282 57.3821 41.0738Z" fill="white"/>
</svg>
