<svg width="60" height="60" viewBox="0 0 60 60" fill="none" xmlns="http://www.w3.org/2000/svg">
<path d="M57.8981 6.45657C57.4907 4.31742 55.8354 2.58572 53.7217 2.12733C53.6198 2.10186 53.518 2.10186 53.3906 2.0764C53.3652 2.0764 53.3397 2.02547 53.3142 2H6.60937C6.5839 2.02547 6.55844 2.0764 6.5075 2.0764C4.39382 2.43292 2.61119 4.11369 2.12733 6.25284C2.10186 6.32924 2.05093 6.4311 2 6.53297V53.3652C2.02547 53.4161 2.0764 53.4416 2.0764 53.4925C2.58572 55.8354 4.01182 57.2869 6.32924 57.8727C6.40564 57.8981 6.45657 57.9491 6.5075 58H53.3906C53.4416 57.9745 53.467 57.9236 53.518 57.8981C55.8354 57.3633 57.2615 55.9627 57.8472 53.6453C57.8727 53.5689 57.8472 53.467 57.8727 53.3906C57.8727 53.3652 57.9236 53.3397 57.9491 53.3142V6.60937C57.9491 6.55844 57.8981 6.53297 57.8981 6.45657ZM34.4693 33.0432H34.1892C32.0755 33.0432 29.9363 33.0432 27.8226 33.0432C27.7208 33.0432 27.6189 33.0432 27.5171 33.0432C27.5171 33.0687 27.4916 33.0687 27.4916 33.0941C27.4916 33.196 27.4916 33.2979 27.4916 33.3997V53.0341H21.9145V33.0687H14.9113V28.6121H34.4438V33.0432H34.4693ZM53.2633 46.362C53.2124 47.2278 53.085 48.0682 52.7285 48.8831C52.6267 49.1378 52.5503 49.367 52.4229 49.6216C51.9645 50.5894 51.2006 51.2769 50.3092 51.8372C49.2906 52.4739 48.1701 52.8304 46.9986 53.0596C45.6999 53.3142 44.4011 53.3906 43.0769 53.3397C42.4402 53.3142 41.8036 53.3142 41.1669 53.2378C39.6644 53.0596 38.1874 52.7285 36.8122 52.0664C36.7358 52.0409 36.6339 51.9136 36.6339 51.8372C36.6339 50.1819 36.6339 48.5266 36.6339 46.8713C36.6339 46.8458 36.6339 46.8204 36.6339 46.7694C37.0414 47.0496 37.4488 47.3297 37.8563 47.5589C38.8495 48.1446 39.9445 48.5521 41.065 48.8067C42.0327 49.0359 43.0005 49.0614 43.9682 49.0105C44.7067 48.985 45.4452 48.8067 46.1073 48.4757C46.693 48.1701 47.1769 47.7626 47.3042 47.075C47.4316 46.4638 47.3806 45.8527 47.0241 45.3179C46.5148 44.5539 45.8017 44.07 45.0123 43.6626C44.121 43.2296 43.2297 42.8477 42.3129 42.4402C40.9632 41.829 39.6389 41.1669 38.5439 40.1483C37.6526 39.3079 36.9905 38.3147 36.6849 37.1178C36.5066 36.4047 36.4557 35.6917 36.4811 34.9786C36.5066 33.2215 37.1432 31.719 38.3911 30.4711C39.4097 29.4525 40.6576 28.8413 42.0327 28.4848C42.975 28.2556 43.9172 28.0773 44.8849 28.0518C45.5725 28.0518 46.2601 27.9754 46.9222 28.0009C47.9664 28.0264 48.985 28.0773 50.0036 28.332C50.6658 28.5102 51.3533 28.6885 52.0155 28.8413C52.1428 28.8668 52.1937 28.9432 52.1937 29.096C52.1937 30.6749 52.1937 32.2792 52.1937 33.8581C52.1937 33.909 52.1937 33.96 52.1683 34.0364C51.9645 33.909 51.7863 33.8072 51.608 33.7053C50.7931 33.2469 49.9272 32.9413 49.0359 32.7121C48.0428 32.4829 47.0496 32.3301 46.0309 32.3556C45.3433 32.3811 44.6303 32.4829 43.9936 32.7121C43.2042 32.9923 42.5675 33.4507 42.2874 34.291C42.0582 34.9532 42.2365 35.5134 42.6439 36.0482C43.1533 36.7103 43.8408 37.1687 44.5794 37.5252C45.5725 38.0091 46.5912 38.4166 47.5589 38.8749C48.6794 39.4097 49.7999 39.9445 50.7422 40.734C51.5571 41.4216 52.2956 42.1855 52.7031 43.2042C52.9322 43.8154 53.136 44.452 53.136 45.1396C53.2378 45.5471 53.2888 45.9545 53.2633 46.362Z" fill="white"/>
</svg>
