<svg width="490" height="737" viewBox="0 0 490 737" fill="none" xmlns="http://www.w3.org/2000/svg">
<g filter="url(#filter0_f_382_3519)">
<path d="M-22.8683 144.613C44.5276 63.8372 180.369 102.899 193.743 107.872C193.743 107.872 316.454 48.7449 237.954 170.155C159.453 291.565 396.304 254.353 396.304 254.353L256.445 440.642C256.445 440.642 176.442 227.389 22.6907 328.48C-36.2175 367.212 -62.4004 422.464 -72.2873 475.893C-23.0068 500.617 51.148 520.578 158.771 532.8C688.115 592.918 -61.8812 643.204 -61.8812 643.204C-61.8812 643.204 -88.2051 561.913 -72.2873 475.893C-265.392 379.009 -76.5615 208.966 -22.8683 144.613Z" fill="#4B47FF"/>
</g>
<defs>
<filter id="filter0_f_382_3519" x="-250.29" y="0.476562" width="739.594" height="735.728" filterUnits="userSpaceOnUse" color-interpolation-filters="sRGB">
<feFlood flood-opacity="0" result="BackgroundImageFix"/>
<feBlend mode="normal" in="SourceGraphic" in2="BackgroundImageFix" result="shape"/>
<feGaussianBlur stdDeviation="46.5" result="effect1_foregroundBlur_382_3519"/>
</filter>
</defs>
</svg>
