<svg width="341" height="759" viewBox="0 0 341 759" fill="none" xmlns="http://www.w3.org/2000/svg">
<g filter="url(#filter0_f_382_3611)">
<path d="M106.5 533C48.1333 445.477 197.442 354.917 206 343.5C206 343.5 72.5004 208 267.5 220C462.5 232 386 93 386 93L537.185 244C537.185 244 310.003 260.294 363.382 436.39C384.076 504.661 430.489 545.591 479.568 570.119C518.81 523.277 558.665 456.455 597.888 363.785C805.541 -126.825 641.241 606.679 641.241 606.679C641.241 606.679 557.08 608.855 479.568 570.119C311.055 771.266 153.843 603.991 106.5 533Z" fill="#1CE6B6"/>
</g>
<defs>
<filter id="filter0_f_382_3611" x="0.00317383" y="0" width="795.931" height="758.853" filterUnits="userSpaceOnUse" color-interpolation-filters="sRGB">
<feFlood flood-opacity="0" result="BackgroundImageFix"/>
<feBlend mode="normal" in="SourceGraphic" in2="BackgroundImageFix" result="shape"/>
<feGaussianBlur stdDeviation="46.5" result="effect1_foregroundBlur_382_3611"/>
</filter>
</defs>
</svg>
