<svg width="678" height="805" viewBox="0 0 678 805" fill="none" xmlns="http://www.w3.org/2000/svg">
<g filter="url(#filter0_f_382_3651)">
<path d="M405.303 708.084C405.978 652.277 391.433 576.961 355.658 477.524C392.332 395.035 819.289 789.943 405.303 708.084C402.116 971.425 60.0189 800.324 10.5824 679.228C-64.3086 495.779 -88.3907 486.259 -163.612 451.197C-238.833 416.135 -395.212 306.44 -256.876 259.465C-250.43 257.277 -244.646 255.383 -239.467 253.763C-257.883 224.722 -263.193 188.223 -209.085 151.446C69.8372 -38.137 423.098 291.151 321.492 413.181C228.333 525.066 358.304 698.791 405.303 708.084Z" fill="#4B47FF"/>
</g>
<defs>
<filter id="filter0_f_382_3651" x="-405.043" y="0.902344" width="1082.79" height="938.802" filterUnits="userSpaceOnUse" color-interpolation-filters="sRGB">
<feFlood flood-opacity="0" result="BackgroundImageFix"/>
<feBlend mode="normal" in="SourceGraphic" in2="BackgroundImageFix" result="shape"/>
<feGaussianBlur stdDeviation="46.5" result="effect1_foregroundBlur_382_3651"/>
</filter>
</defs>
</svg>
